<svg xmlns="http://www.w3.org/2000/svg" width="1024" height="1024" viewBox="0 0 1024 1024">
  <defs>
    <linearGradient id="bg" x1="0" y1="0" x2="1" y2="1">
      <stop offset="0%" stop-color="#bfe9f7"/>
      <stop offset="100%" stop-color="#e5f8d6"/>
    </linearGradient>
    <radialGradient id="fur" cx="45%" cy="35%" r="70%">
      <stop offset="0%" stop-color="#9a6849"/>
      <stop offset="100%" stop-color="#5b3829"/>
    </radialGradient>
  </defs>

  <!-- Background -->
  <rect width="1024" height="1024" rx="80" fill="url(#bg)"/>
  <ellipse cx="512" cy="845" rx="390" ry="92" fill="#79c8da" opacity="0.55"/>

  <!-- Tail -->
  <path d="M735 675
           C895 650 928 785 824 853
           C735 911 632 853 658 769
           C670 730 696 697 735 675Z"
        fill="#8a5a3d" stroke="#42281f" stroke-width="18"/>
  <path d="M724 714 C790 700 848 730 860 776
           M704 758 C771 743 825 771 833 815
           M687 802 C740 791 785 816 793 852"
        fill="none" stroke="#b9825e" stroke-width="14" stroke-linecap="round"/>

  <!-- Body -->
  <ellipse cx="485" cy="590" rx="300" ry="255" fill="url(#fur)" stroke="#42281f" stroke-width="20"/>

  <!-- Belly -->
  <ellipse cx="492" cy="695" rx="163" ry="113" fill="#b9825e" opacity="0.72"/>

  <!-- Feet -->
  <path d="M290 790 C231 817 201 871 236 903
           C271 934 320 892 345 853
           C357 834 345 800 290 790Z"
        fill="#eea443" stroke="#42281f" stroke-width="16"/>
  <path d="M661 790 C721 817 753 871 717 903
           C681 934 632 892 607 853
           C595 834 607 800 661 790Z"
        fill="#eea443" stroke="#42281f" stroke-width="16"/>

  <!-- Head -->
  <ellipse cx="470" cy="416" rx="235" ry="205" fill="url(#fur)" stroke="#42281f" stroke-width="20"/>

  <!-- Eyes -->
  <ellipse cx="391" cy="380" rx="35" ry="44" fill="#1c1715"/>
  <ellipse cx="549" cy="380" rx="35" ry="44" fill="#1c1715"/>
  <circle cx="401" cy="366" r="11" fill="white"/>
  <circle cx="559" cy="366" r="11" fill="white"/>

  <!-- Bill -->
  <path d="M305 465
           C306 412 367 404 469 421
           C565 404 653 421 654 465
           C655 515 580 560 472 558
           C372 560 304 515 305 465Z"
        fill="#eea443" stroke="#42281f" stroke-width="18"/>
  <path d="M468 429 L468 543" stroke="#ba6f2d" stroke-width="12" stroke-linecap="round"/>
  <path d="M386 489 C410 506 434 511 451 508
           M550 489 C526 506 502 511 485 508"
        fill="none" stroke="#ba6f2d" stroke-width="10" stroke-linecap="round"/>

  <!-- Nostril -->
  <ellipse cx="409" cy="458" rx="10" ry="7" fill="#7f4827"/>
  <ellipse cx="528" cy="458" rx="10" ry="7" fill="#7f4827"/>

  <!-- Cheeks -->
  <ellipse cx="329" cy="484" rx="32" ry="19" fill="#d88172" opacity="0.65"/>
  <ellipse cx="611" cy="484" rx="32" ry="19" fill="#d88172" opacity="0.65"/>

  <!-- Text -->
  <text x="512" y="963" text-anchor="middle"
        font-family="Arial, sans-serif" font-size="42"
        font-weight="bold" fill="#3f5d45">PLATYPUS</text>
</svg>